<svg width="20" height="20" viewBox="0 0 20 20" fill="none" xmlns="http://www.w3.org/2000/svg">
<g clip-path="url(#clip0_138_843)">
<path d="M15.2734 9.57031C15.2734 8.92414 14.7477 8.39844 14.1016 8.39844H12.9297C12.2835 8.39844 11.7578 8.92414 11.7578 9.57031V13.6719H15.2734V9.57031Z" fill="#B4B7C9"/>
<path d="M2.38281 2.92969C2.38281 1.96055 3.17148 1.17188 4.14062 1.17188H5.3125C6.10445 1.17188 6.77562 1.69859 6.99469 2.42C5.69695 2.72086 4.72656 3.88555 4.72656 5.27344V5.85938H10.5859V5.27344C10.5859 3.84109 9.55246 2.64637 8.19219 2.39375C7.93957 1.03336 6.74469 0 5.3125 0H4.14062C2.52539 0 1.21094 1.31406 1.21094 2.92969V8.39844H2.38281V2.92969Z" fill="#B4B7C9"/>
<path d="M16.4453 14.8438H10.5859V13.0859H1.21094V14.8438C1.21094 16.377 2.05664 17.7161 3.30594 18.4198L2.55445 19.1713L3.38305 20L4.51566 18.8674C4.77352 18.9183 5.03992 18.9453 5.3125 18.9453H14.6875C14.9601 18.9453 15.2265 18.9183 15.4843 18.8674L16.617 20L17.4456 19.1714L16.6941 18.4199C17.9434 17.7161 18.7891 16.377 18.7891 14.8438V13.0859H16.4453V14.8438Z" fill="#B4B7C9"/>
<path d="M18.8281 9.57031H16.4453V11.9141H18.8281C19.4742 11.9141 20 11.3883 20 10.7422C20 10.0961 19.4742 9.57031 18.8281 9.57031Z" fill="#B4B7C9"/>
<path d="M10.5859 9.57031H1.17188C0.525781 9.57031 0 10.0961 0 10.7422C0 11.3883 0.525781 11.9141 1.17188 11.9141H10.5859V9.57031Z" fill="#B4B7C9"/>
</g>
<defs>
<clipPath id="clip0_138_843">
<rect width="20" height="20" fill="white"/>
</clipPath>
</defs>
</svg>
