<svg width="45" height="44" viewBox="0 0 45 44" fill="none" xmlns="http://www.w3.org/2000/svg">
<g clip-path="url(#clip0_304_3150)">
<path d="M34.1016 21.0547C34.1016 19.6331 32.945 18.4766 31.5234 18.4766H28.9453C27.5237 18.4766 26.3672 19.6331 26.3672 21.0547V30.0781H34.1016V21.0547Z" fill="#B4B7C9"/>
<path d="M5.74219 6.44531C5.74219 4.3132 7.47727 2.57812 9.60938 2.57812H12.1875C13.9298 2.57812 15.4064 3.73691 15.8883 5.324C13.0333 5.98589 10.8984 8.5482 10.8984 11.6016V12.8906H23.7891V11.6016C23.7891 8.45041 21.5154 5.82201 18.5228 5.26625C17.9671 2.27339 15.3383 0 12.1875 0H9.60938C6.05586 0 3.16406 2.89094 3.16406 6.44531V18.4766H5.74219V6.44531Z" fill="#B4B7C9"/>
<path d="M36.6797 32.6562H23.7891V28.7891H3.16406V32.6562C3.16406 36.0294 5.02461 38.9755 7.77306 40.5237L6.1198 42.1769L7.9427 44L10.4345 41.5082C11.0017 41.6203 11.5878 41.6797 12.1875 41.6797H32.8125C33.4122 41.6797 33.9983 41.6203 34.5655 41.5082L37.0573 44L38.8803 42.177L37.227 40.5237C39.9754 38.9755 41.8359 36.0294 41.8359 32.6562V28.7891H36.6797V32.6562Z" fill="#B4B7C9"/>
<path d="M41.9219 21.0547H36.6797V26.2109H41.9219C43.3433 26.2109 44.5 25.0542 44.5 23.6328C44.5 22.2114 43.3433 21.0547 41.9219 21.0547Z" fill="#B4B7C9"/>
<path d="M23.7891 21.0547H3.07812C1.65672 21.0547 0.5 22.2114 0.5 23.6328C0.5 25.0542 1.65672 26.2109 3.07812 26.2109H23.7891V21.0547Z" fill="#B4B7C9"/>
</g>
<defs>
<clipPath id="clip0_304_3150">
<rect width="44" height="44" fill="white" transform="translate(0.5)"/>
</clipPath>
</defs>
</svg>
