<svg width="20" height="20" viewBox="0 0 20 20" fill="none" xmlns="http://www.w3.org/2000/svg">
<path d="M18.75 11.25V15.625C18.75 15.97 18.47 16.25 18.125 16.25C17.78 16.25 17.5 15.97 17.5 15.625V15H2.5V15.625C2.5 15.97 2.22 16.25 1.875 16.25C1.53 16.25 1.25 15.97 1.25 15.625V11.25C1.25 10.2162 2.09125 9.375 3.125 9.375H16.875C17.9088 9.375 18.75 10.2162 18.75 11.25Z" fill="#B4B7C9"/>
<path d="M3.125 8.125V4.375C3.125 4.03 3.405 3.75 3.75 3.75H16.25C16.595 3.75 16.875 4.03 16.875 4.375V8.125H15V7.5C15 6.81063 14.4394 6.25 13.75 6.25H11.875C11.1856 6.25 10.625 6.81063 10.625 7.5V8.125H9.375V7.5C9.375 6.81063 8.81437 6.25 8.125 6.25H6.25C5.56063 6.25 5 6.81063 5 7.5V8.125H3.125Z" fill="#B4B7C9"/>
</svg>
