<svg width="45" height="44" viewBox="0 0 45 44" fill="none" xmlns="http://www.w3.org/2000/svg">
<path d="M41.75 24.75V34.375C41.75 35.134 41.134 35.75 40.375 35.75C39.616 35.75 39 35.134 39 34.375V33H6V34.375C6 35.134 5.384 35.75 4.625 35.75C3.866 35.75 3.25 35.134 3.25 34.375V24.75C3.25 22.4757 5.10075 20.625 7.375 20.625H37.625C39.8993 20.625 41.75 22.4757 41.75 24.75Z" fill="#B4B7C9"/>
<path d="M7.375 17.875V9.625C7.375 8.866 7.991 8.25 8.75 8.25H36.25C37.009 8.25 37.625 8.866 37.625 9.625V17.875H33.5V16.5C33.5 14.9834 32.2666 13.75 30.75 13.75H26.625C25.1084 13.75 23.875 14.9834 23.875 16.5V17.875H21.125V16.5C21.125 14.9834 19.8916 13.75 18.375 13.75H14.25C12.7334 13.75 11.5 14.9834 11.5 16.5V17.875H7.375Z" fill="#B4B7C9"/>
</svg>
