<svg width="20" height="20" viewBox="0 0 20 20" fill="none" xmlns="http://www.w3.org/2000/svg">
<g clip-path="url(#clip0_138_852)">
<path d="M4.56527 3.91309H3.91309V5.21742H4.56527C4.92488 5.21742 5.21746 4.92484 5.21746 4.56523C5.21746 4.20562 4.92488 3.91309 4.56527 3.91309Z" fill="#B4B7C9"/>
<path d="M18.6957 17.2711C19.4531 17.0011 20 16.2839 20 15.4348V14.1304C20 13.2231 19.3763 12.4651 18.5371 12.2448L17.655 9.59875C17.3884 8.79859 16.6427 8.26082 15.7991 8.26082H10.7227C9.87902 8.26082 9.1334 8.79855 8.86676 9.59852L7.98461 12.2447C7.14547 12.465 6.52176 13.223 6.52176 14.1304V15.4347C6.52176 16.2838 7.06863 17.001 7.82609 17.2711V18.0434C7.82609 18.2732 7.87324 18.4906 7.94625 18.6956H5.21738V10.3827C7.42613 10.0645 9.13043 8.16484 9.13043 5.86957V4.56523C9.13043 2.04801 7.08262 0 4.56523 0C2.04785 0 0 2.04801 0 4.56523V5.86957C0 8.16484 1.7043 10.0645 3.91305 10.3827V18.6957H0.652187C0.292148 18.6957 0 18.9876 0 19.3478C0 19.7081 0.292148 20 0.652187 20H19.3479C19.7079 20 20 19.7081 20 19.3478C20 18.9875 19.7079 18.6956 19.3479 18.6956H18.5755C18.6486 18.4906 18.6957 18.2732 18.6957 18.0434V17.2711ZM3.91305 6.52176V7.17395C3.91305 7.53422 3.6209 7.82613 3.26086 7.82613C2.90082 7.82613 2.60867 7.53422 2.60867 7.17395V5.86961V3.26086C2.60867 2.90059 2.90082 2.60867 3.26086 2.60867H4.5652C5.64406 2.60867 6.52172 3.48633 6.52172 4.5652C6.52172 5.64406 5.64406 6.52172 4.5652 6.52172H3.91305V6.52176ZM10.1041 10.0111C10.1932 9.74441 10.4416 9.56523 10.7227 9.56523H15.7992C16.0803 9.56523 16.3287 9.74441 16.4178 10.0113L17.1387 12.1739C14.7641 12.1739 11.8239 12.1739 9.38305 12.1739L10.1041 10.0111ZM8.47824 16.087C8.11863 16.087 7.82605 15.7944 7.82605 15.4348V14.1304C7.82605 13.7708 8.11863 13.4782 8.47824 13.4782H9.3127L10.1823 16.087H8.47824ZM11.6189 18.6957C11.692 18.4907 11.7391 18.2733 11.7391 18.0435V17.3913H14.7826V18.0435C14.7826 18.2732 14.8297 18.4907 14.9027 18.6957H11.6189ZM18.0435 16.087H16.3395L17.2091 13.4782H18.0435C18.4031 13.4782 18.6957 13.7708 18.6957 14.1304V15.4348C18.6957 15.7944 18.4031 16.087 18.0435 16.087Z" fill="#B4B7C9"/>
</g>
<defs>
<clipPath id="clip0_138_852">
<rect width="20" height="20" fill="white"/>
</clipPath>
</defs>
</svg>
