<svg width="45" height="44" viewBox="0 0 45 44" fill="none" xmlns="http://www.w3.org/2000/svg">
<g clip-path="url(#clip0_304_3156)">
<path d="M10.5403 8.60864H9.10547V11.4782H10.5403C11.3314 11.4782 11.9751 10.8345 11.9751 10.0434C11.9751 9.25223 11.3314 8.60864 10.5403 8.60864Z" fill="#B4B7C9"/>
<path d="M41.6305 37.9965C43.2969 37.4023 44.5 35.8246 44.5 33.9565V31.0869C44.5 29.0908 43.1278 27.4232 41.2816 26.9385L39.341 21.1173C38.7544 19.3569 37.114 18.1738 35.258 18.1738H24.0898C22.2339 18.1738 20.5935 19.3568 20.0069 21.1167L18.0661 26.9384C16.22 27.4231 14.8479 29.0907 14.8479 31.0869V33.9564C14.8479 35.8244 16.051 37.4021 17.7174 37.9963V39.6955C17.7174 40.201 17.8211 40.6793 17.9818 41.1303H11.9782V22.8419C16.8375 22.142 20.5869 17.9627 20.5869 12.9131V10.0435C20.5869 4.50562 16.0818 0 10.5435 0C5.00527 0 0.5 4.50562 0.5 10.0435V12.9131C0.5 17.9627 4.24945 22.142 9.1087 22.8419V41.1305H1.93481C1.14273 41.1305 0.5 41.7727 0.5 42.5652C0.5 43.3578 1.14273 44 1.93481 44H43.0653C43.8574 44 44.5001 43.3578 44.5001 42.5652C44.5001 41.7726 43.8574 41.1304 43.0653 41.1304H41.3661C41.5268 40.6794 41.6305 40.2011 41.6305 39.6956V37.9965ZM9.1087 14.3479V15.7827C9.1087 16.5753 8.46598 17.2175 7.67389 17.2175C6.8818 17.2175 6.23908 16.5753 6.23908 15.7827V12.9131V7.17389C6.23908 6.38129 6.8818 5.73908 7.67389 5.73908H10.5434C12.9169 5.73908 14.8478 7.66992 14.8478 10.0434C14.8478 12.4169 12.9169 14.3478 10.5434 14.3478H9.1087V14.3479ZM22.7289 22.0243C22.9251 21.4377 23.4716 21.0435 24.09 21.0435H35.2582C35.8766 21.0435 36.4231 21.4377 36.6192 22.0248L38.2051 26.7827C32.981 26.7827 26.5126 26.7827 21.1427 26.7827L22.7289 22.0243ZM19.1521 35.3913C18.361 35.3913 17.7173 34.7476 17.7173 33.9565V31.0869C17.7173 30.2958 18.361 29.6521 19.1521 29.6521H20.9879L22.901 35.3913H19.1521ZM26.0617 41.1305C26.2224 40.6795 26.326 40.2012 26.326 39.6956V38.2608H33.0217V39.6956C33.0217 40.2011 33.1254 40.6795 33.286 41.1305H26.0617ZM40.1956 35.3913H36.4469L38.3599 29.6521H40.1957C40.9869 29.6521 41.6305 30.2958 41.6305 31.0869V33.9565C41.6305 34.7476 40.9868 35.3913 40.1956 35.3913Z" fill="#B4B7C9"/>
</g>
<defs>
<clipPath id="clip0_304_3156">
<rect width="44" height="44" fill="white" transform="translate(0.5)"/>
</clipPath>
</defs>
</svg>
